<svg width="30" height="29" viewBox="0 0 30 29" fill="none" xmlns="http://www.w3.org/2000/svg">
<path d="M15 20.3103L7 12.5862M15 29V13.5517V29ZM15 14.5172V20.3103V14.5172ZM15 14.5172C15 12.4687 14.1571 10.504 12.6569 9.05545C11.1566 7.60689 9.12173 6.7931 7 6.7931H1V12.5862C1 14.6348 1.84285 16.5994 3.34315 18.048C4.84344 19.4966 6.87827 20.3103 9 20.3103H15V14.5172ZM15 14.5172H21C23.1217 14.5172 25.1566 13.7035 26.6569 12.2549C28.1571 10.8063 29 8.84167 29 6.7931V1H23C20.8783 1 18.8434 1.81379 17.3431 3.26235C15.8429 4.7109 15 6.67557 15 8.72414V14.5172ZM15 14.5172L23 6.7931L15 14.5172Z" stroke="white" stroke-width="2"/>
</svg>
